<svg width="90" height="90" viewBox="0 0 90 90" fill="none" xmlns="http://www.w3.org/2000/svg">
<path d="M51.25 49.6875C52.1124 49.6875 52.8125 48.9874 52.8125 48.125C52.8125 47.2626 52.1124 46.5625 51.25 46.5625C50.3876 46.5625 49.6875 47.2626 49.6875 48.125C49.6875 48.9874 50.3876 49.6875 51.25 49.6875Z" fill="black"/>
<path d="M16.875 49.6875C17.7374 49.6875 18.4375 48.9874 18.4375 48.125C18.4375 47.2626 17.7374 46.5625 16.875 46.5625C16.0126 46.5625 15.3125 47.2626 15.3125 48.125C15.3125 48.9874 16.0126 49.6875 16.875 49.6875Z" fill="black"/>
<path d="M6.5625 24.6875C7.42554 24.6875 8.125 23.988 8.125 23.125V8.125H23.125C23.988 8.125 24.6875 7.42554 24.6875 6.5625C24.6875 5.69946 23.988 5 23.125 5H6.5625C5.69946 5 5 5.69946 5 6.5625V23.125C5 23.988 5.69946 24.6875 6.5625 24.6875Z" fill="black"/>
<path d="M24.6875 83.4375C24.6875 82.5745 23.988 81.875 23.125 81.875H8.125V66.875C8.125 66.012 7.42554 65.3125 6.5625 65.3125C5.69946 65.3125 5 66.012 5 66.875V83.4375C5 84.3005 5.69946 85 6.5625 85H23.125C23.988 85 24.6875 84.3005 24.6875 83.4375Z" fill="black"/>
<path d="M83.4375 65.3125C82.5745 65.3125 81.875 66.012 81.875 66.875V81.875H66.875C66.012 81.875 65.3125 82.5745 65.3125 83.4375C65.3125 84.3005 66.012 85 66.875 85H83.4375C84.3005 85 85 84.3005 85 83.4375V66.875C85 66.012 84.3005 65.3125 83.4375 65.3125Z" fill="black"/>
<path d="M83.4375 5H66.875C66.012 5 65.3125 5.69946 65.3125 6.5625C65.3125 7.42554 66.012 8.125 66.875 8.125H81.875V23.125C81.875 23.988 82.5745 24.6875 83.4375 24.6875C84.3005 24.6875 85 23.988 85 23.125V6.5625C85 5.69946 84.3005 5 83.4375 5Z" fill="black"/>
<path d="M15.3125 73.125C15.3125 73.988 16.012 74.6875 16.875 74.6875H32.5C33.363 74.6875 34.0625 73.988 34.0625 73.125V57.5C34.0625 56.637 33.363 55.9375 32.5 55.9375H16.875C16.012 55.9375 15.3125 56.637 15.3125 57.5V73.125ZM18.4375 59.0625H30.9375V71.5625H18.4375V59.0625Z" fill="black"/>
<path d="M32.5 15.3125H16.875C16.012 15.3125 15.3125 16.012 15.3125 16.875V32.5C15.3125 33.363 16.012 34.0625 16.875 34.0625H32.5C33.363 34.0625 34.0625 33.363 34.0625 32.5V16.875C34.0625 16.012 33.363 15.3125 32.5 15.3125ZM30.9375 30.9375H18.4375V18.4375H30.9375V30.9375Z" fill="black"/>
<path d="M74.6875 16.875C74.6875 16.012 73.988 15.3125 73.125 15.3125H57.5C56.637 15.3125 55.9375 16.012 55.9375 16.875V32.5C55.9375 33.363 56.637 34.0625 57.5 34.0625H73.125C73.988 34.0625 74.6875 33.363 74.6875 32.5V16.875ZM71.5625 30.9375H59.0625V18.4375H71.5625V30.9375Z" fill="black"/>
<path d="M74.6875 73.125V57.5C74.6875 56.637 73.988 55.9375 73.125 55.9375H57.5C56.637 55.9375 55.9375 56.637 55.9375 57.5V73.125C55.9375 73.988 56.637 74.6875 57.5 74.6875H73.125C73.988 74.6875 74.6875 73.988 74.6875 73.125ZM71.5625 71.5625H59.0625V59.0625H71.5625V71.5625Z" fill="black"/>
<path d="M26.25 62.1875H23.125C22.262 62.1875 21.5625 62.887 21.5625 63.75V66.875C21.5625 67.738 22.262 68.4375 23.125 68.4375H26.25C27.113 68.4375 27.8125 67.738 27.8125 66.875V63.75C27.8125 62.887 27.113 62.1875 26.25 62.1875Z" fill="black"/>
<path d="M23.125 27.8125H26.25C27.113 27.8125 27.8125 27.113 27.8125 26.25V23.125C27.8125 22.262 27.113 21.5625 26.25 21.5625H23.125C22.262 21.5625 21.5625 22.262 21.5625 23.125V26.25C21.5625 27.113 22.262 27.8125 23.125 27.8125Z" fill="black"/>
<path d="M63.75 27.8125H66.875C67.738 27.8125 68.4375 27.113 68.4375 26.25V23.125C68.4375 22.262 67.738 21.5625 66.875 21.5625H63.75C62.887 21.5625 62.1875 22.262 62.1875 23.125V26.25C62.1875 27.113 62.887 27.8125 63.75 27.8125Z" fill="black"/>
<path d="M63.75 68.4375H66.875C67.738 68.4375 68.4375 67.738 68.4375 66.875V63.75C68.4375 62.887 67.738 62.1875 66.875 62.1875H63.75C62.887 62.1875 62.1875 62.887 62.1875 63.75V66.875C62.1875 67.738 62.887 68.4375 63.75 68.4375Z" fill="black"/>
<path d="M21.5625 48.125C21.5625 48.988 22.262 49.6875 23.125 49.6875H43.4375V57.5C43.4375 58.363 44.137 59.0625 45 59.0625C45.863 59.0625 46.5625 58.363 46.5625 57.5V48.125C46.5625 47.262 45.863 46.5625 45 46.5625H23.125C22.262 46.5625 21.5625 47.262 21.5625 48.125Z" fill="black"/>
<path d="M32.5 43.4375C33.363 43.4375 34.0625 42.738 34.0625 41.875C34.0625 41.012 33.363 40.3125 32.5 40.3125H16.875C16.012 40.3125 15.3125 41.012 15.3125 41.875C15.3125 42.738 16.012 43.4375 16.875 43.4375H32.5Z" fill="black"/>
<path d="M38.75 43.4375H45C45.863 43.4375 46.5625 42.738 46.5625 41.875C46.5625 41.012 45.863 40.3125 45 40.3125H38.75C37.887 40.3125 37.1875 41.012 37.1875 41.875C37.1875 42.738 37.887 43.4375 38.75 43.4375Z" fill="black"/>
<path d="M38.75 15.3125C37.887 15.3125 37.1875 16.012 37.1875 16.875V32.5C37.1875 33.363 37.887 34.0625 38.75 34.0625H49.6875V41.875C49.6875 42.738 50.387 43.4375 51.25 43.4375H57.5C58.363 43.4375 59.0625 42.738 59.0625 41.875C59.0625 41.012 58.363 40.3125 57.5 40.3125H52.8125V32.5C52.8125 31.637 52.113 30.9375 51.25 30.9375H40.3125V16.875C40.3125 16.012 39.613 15.3125 38.75 15.3125Z" fill="black"/>
<path d="M73.125 40.3125H63.75C62.887 40.3125 62.1875 41.012 62.1875 41.875C62.1875 42.738 62.887 43.4375 63.75 43.4375H73.125C73.988 43.4375 74.6875 42.738 74.6875 41.875C74.6875 41.012 73.988 40.3125 73.125 40.3125Z" fill="black"/>
<path d="M73.125 46.5625H57.5C56.637 46.5625 55.9375 47.262 55.9375 48.125C55.9375 48.988 56.637 49.6875 57.5 49.6875H73.125C73.988 49.6875 74.6875 48.988 74.6875 48.125C74.6875 47.262 73.988 46.5625 73.125 46.5625Z" fill="black"/>
<path d="M45 62.1875H38.75C37.887 62.1875 37.1875 62.887 37.1875 63.75V73.125C37.1875 73.988 37.887 74.6875 38.75 74.6875C39.613 74.6875 40.3125 73.988 40.3125 73.125V65.3125H45C45.863 65.3125 46.5625 64.613 46.5625 63.75C46.5625 62.887 45.863 62.1875 45 62.1875Z" fill="black"/>
<path d="M49.6875 71.5625H45C44.137 71.5625 43.4375 72.262 43.4375 73.125C43.4375 73.988 44.137 74.6875 45 74.6875H51.25C52.113 74.6875 52.8125 73.988 52.8125 73.125V54.375C52.8125 53.512 52.113 52.8125 51.25 52.8125C50.387 52.8125 49.6875 53.512 49.6875 54.375V71.5625Z" fill="black"/>
<path d="M51.25 27.8125C52.113 27.8125 52.8125 27.113 52.8125 26.25V16.875C52.8125 16.012 52.113 15.3125 51.25 15.3125C50.387 15.3125 49.6875 16.012 49.6875 16.875V24.6875H45C44.137 24.6875 43.4375 25.387 43.4375 26.25C43.4375 27.113 44.137 27.8125 45 27.8125H51.25Z" fill="black"/>
<path d="M44.9999 25C56.0462 25 65 33.955 65 45.0001C65 56.0464 56.0462 65 44.9999 65C33.9536 65 25 56.0462 25 45.0001C25 33.955 33.9538 25 44.9999 25Z" fill="#3B5998"/>
<path d="M47.4351 38.7687H50.0126V34.9612H46.9827V34.9749C43.3114 35.1049 42.5589 37.1687 42.4926 39.3362H42.485V41.2375H39.9851V44.9662H42.485V54.9611H46.2526V44.9662H49.3388L49.935 41.2375H46.2538V40.0888C46.2538 39.3562 46.7413 38.7687 47.4351 38.7687Z" fill="white"/>
</svg>
