<svg width="90" height="90" viewBox="0 0 90 90" fill="none" xmlns="http://www.w3.org/2000/svg">
<path d="M38.125 18.9986V18.7778C38.125 16.3689 37.187 14.1048 35.4827 12.4005C33.9358 10.8522 31.877 10 29.6875 10C27.5781 10 25.5897 10.7917 24.0625 12.2345C22.5353 10.7917 20.5469 10 18.4375 10C16.248 10 14.1892 10.8522 12.6423 12.4005C10.938 14.1048 10 16.3689 10 18.7778V18.9986C10 21.7239 11.1686 24.3255 13.2048 26.1353L24.0625 35.7878L34.9187 26.1367C36.9564 24.3269 38.125 21.7253 38.125 18.9986Z" fill="#D63864"/>
<path d="M38.125 18.9986V18.7778C38.125 16.3689 37.187 14.1048 35.4827 12.4005C33.9358 10.8522 31.877 10 29.6875 10C27.5781 10 25.5897 10.7917 24.0625 12.2345C22.5353 10.7917 20.5469 10 18.4375 10C16.248 10 14.1892 10.8522 12.6423 12.4005C10.938 14.1048 10 16.3689 10 18.7778V18.9986C10 21.7239 11.1686 24.3255 13.2048 26.1353L24.0625 35.7878L34.9187 26.1367C36.9564 24.3269 38.125 21.7253 38.125 18.9986ZM24.0625 32.0247L15.0737 24.0344C13.6366 22.7575 12.8125 20.9223 12.8125 18.9986V18.7778C12.8125 17.1198 13.458 15.5617 14.6308 14.3889C15.6475 13.3722 17.0003 12.8125 18.4375 12.8125C19.8747 12.8125 21.2275 13.3722 22.2442 14.3889L24.0625 16.2072L25.8808 14.3889C27.9142 12.3569 31.4608 12.3569 33.4942 14.3889C34.667 15.5617 35.3125 17.1198 35.3125 18.7778V18.9986C35.3125 20.9209 34.4884 22.7575 33.0513 24.0344L24.0625 32.0247Z" fill="black"/>
<path d="M84.375 12.6562H46.4062V5.625C46.4062 3.29906 44.5134 1.40625 42.1875 1.40625H5.625C3.29906 1.40625 1.40625 3.29906 1.40625 5.625V36.5625C1.40625 38.8884 3.29906 40.7812 5.625 40.7812H17.6231L19.9673 43.5938H8.4375C6.11156 43.5938 4.21875 45.4866 4.21875 47.8125V75.9375C4.21875 78.2634 6.11156 80.1562 8.4375 80.1562H23.2481L29.2837 87.3984C29.9166 88.1578 30.8461 88.5938 31.8347 88.5938C33.6656 88.5938 35.1562 87.1031 35.1562 85.2722V80.1562H50.625C52.9509 80.1562 54.8438 78.2634 54.8438 75.9375V52.0312H57.6562V57.1472C57.6562 58.9781 59.1469 60.4688 60.9778 60.4688C61.9664 60.4688 62.8959 60.0328 63.5287 59.2734L69.5644 52.0312H84.375C86.7009 52.0312 88.5938 50.1384 88.5938 47.8125V16.875C88.5938 14.5491 86.7009 12.6562 84.375 12.6562ZM5.625 37.9688C4.85016 37.9688 4.21875 37.3387 4.21875 36.5625V5.625C4.21875 4.84875 4.85016 4.21875 5.625 4.21875H42.1875C42.9623 4.21875 43.5938 4.84875 43.5938 5.625V36.5625C43.5938 37.3387 42.9623 37.9688 42.1875 37.9688H26.7188V45.8972C26.7188 46.3317 26.0972 46.5567 25.8188 46.222L18.9394 37.9688H5.625ZM37.9688 43.5938H29.5312V40.7812H37.9688V43.5938ZM52.0312 75.9375C52.0312 76.7138 51.3998 77.3438 50.625 77.3438H32.3438V85.2722C32.3438 85.7067 31.7222 85.9317 31.4438 85.597L24.5644 77.3438H8.4375C7.66266 77.3438 7.03125 76.7138 7.03125 75.9375V47.8125C7.03125 47.0363 7.66266 46.4062 8.4375 46.4062H22.3102L23.6587 48.0234C24.2916 48.7828 25.2211 49.2188 26.2097 49.2188C27.8663 49.2188 29.2317 47.9953 29.4792 46.4062H37.9688V47.8125C37.9688 50.1384 39.8616 52.0312 42.1875 52.0312H52.0312V75.9375ZM85.7812 47.8125C85.7812 48.5887 85.1498 49.2188 84.375 49.2188H68.2481L61.3687 57.472C61.0903 57.8039 60.4688 57.5803 60.4688 57.1472V49.2188H42.1875C41.4127 49.2188 40.7812 48.5887 40.7812 47.8125V40.7812H42.1875C44.5134 40.7812 46.4062 38.8884 46.4062 36.5625V15.4688H84.375C85.1498 15.4688 85.7812 16.0988 85.7812 16.875V47.8125Z" fill="black"/>
<path d="M35.8328 62.7677C35.5066 62.0561 35.3125 61.2714 35.3125 60.4375C35.3125 57.3353 37.8353 54.8125 40.9375 54.8125C44.0397 54.8125 46.5625 57.3353 46.5625 60.4375C46.5625 61.9366 45.9648 63.2908 45.0058 64.3005C47.6073 65.7391 49.375 68.5094 49.375 71.6875V74.5H10V71.6875C10 68.5094 11.7677 65.7391 14.3692 64.3005C13.4102 63.2908 12.8125 61.9366 12.8125 60.4375C12.8125 57.3353 15.3353 54.8125 18.4375 54.8125C21.5397 54.8125 24.0625 57.3353 24.0625 60.4375C24.0625 61.2714 23.8684 62.0561 23.5422 62.7677C24.1483 62.2305 24.8233 61.772 25.5531 61.4078C24.6362 60.4066 24.0625 59.0861 24.0625 57.625C24.0625 54.5228 26.5853 52 29.6875 52C32.7897 52 35.3125 54.5228 35.3125 57.625C35.3125 59.0861 34.7388 60.4066 33.8219 61.4078C34.5517 61.772 35.2267 62.2305 35.8328 62.7677Z" fill="#A556CB"/>
<path d="M10.1562 71.9688H48.1562V74.5187H10.1562V71.9688Z" fill="black"/>
<path d="M35.3125 60.4375C35.3125 61.2714 35.5066 62.0561 35.8328 62.7677C35.2267 62.2305 34.5517 61.772 33.8219 61.4078C34.7388 60.4066 35.3125 59.0861 35.3125 57.625C35.3125 54.5228 32.7897 52 29.6875 52C26.5853 52 24.0625 54.5228 24.0625 57.625C24.0625 59.0861 24.6362 60.4066 25.5531 61.4078C24.8233 61.772 24.1483 62.2305 23.5422 62.7677C23.8684 62.0561 24.0625 61.2714 24.0625 60.4375C24.0625 57.3353 21.5397 54.8125 18.4375 54.8125C15.3353 54.8125 12.8125 57.3353 12.8125 60.4375C12.8125 61.9366 13.4102 63.2908 14.3692 64.3005C11.7677 65.7391 10 68.5094 10 71.6875V74.5H12.8125V71.6875C12.8125 68.5853 15.3353 66.0625 18.4375 66.0625C19.3234 66.0625 20.1728 66.2734 20.9463 66.6602C20.7241 67.3028 20.5609 67.975 20.4822 68.6767L19.8522 74.3439L22.6562 73.4688L23.2764 68.9875C23.6406 65.7166 26.3969 63.25 29.6875 63.25C32.9781 63.25 35.7344 65.7166 36.0986 68.9875L36.6562 73.9688L39.5228 74.3439L38.8928 68.6767C38.8155 67.975 38.6509 67.3028 38.4287 66.6602C39.2022 66.2734 40.0516 66.0625 40.9375 66.0625C44.0397 66.0625 46.5625 68.5853 46.5625 71.6875V74.5H49.375V71.6875C49.375 68.5094 47.6073 65.7391 45.0058 64.3005C45.9648 63.2908 46.5625 61.9366 46.5625 60.4375C46.5625 57.3353 44.0397 54.8125 40.9375 54.8125C37.8353 54.8125 35.3125 57.3353 35.3125 60.4375ZM15.625 60.4375C15.625 58.8864 16.8864 57.625 18.4375 57.625C19.9886 57.625 21.25 58.8864 21.25 60.4375C21.25 61.9886 19.9886 63.25 18.4375 63.25C16.8864 63.25 15.625 61.9886 15.625 60.4375ZM26.875 57.625C26.875 56.0739 28.1364 54.8125 29.6875 54.8125C31.2386 54.8125 32.5 56.0739 32.5 57.625C32.5 59.1761 31.2386 60.4375 29.6875 60.4375C28.1364 60.4375 26.875 59.1761 26.875 57.625ZM43.75 60.4375C43.75 61.9886 42.4886 63.25 40.9375 63.25C39.3864 63.25 38.125 61.9886 38.125 60.4375C38.125 58.8864 39.3864 57.625 40.9375 57.625C42.4886 57.625 43.75 58.8864 43.75 60.4375Z" fill="black"/>
<rect x="51" y="29" width="7" height="15" fill="#4267B2"/>
<path d="M74.3125 26.4375H71.7531L72.092 24.4069C72.3578 22.808 71.9106 21.1823 70.863 19.9462C69.8153 18.7087 68.2853 18 66.6653 18C64.7261 18 63.0428 19.3148 62.5717 21.195C62.0627 23.2341 61.008 25.0959 59.5216 26.5837L59.1067 26.9986C58.6384 26.6512 58.0647 26.4375 57.4375 26.4375H51.8125C50.2614 26.4375 49 27.6989 49 29.25V43.3125C49 44.8636 50.2614 46.125 51.8125 46.125H57.4375C58.6652 46.125 59.6988 45.3305 60.0827 44.2322C62.5773 45.4697 65.3181 46.125 68.132 46.125H74.3125C77.4147 46.125 79.9375 43.6022 79.9375 40.5V32.0625C79.9375 28.9603 77.4147 26.4375 74.3125 26.4375ZM51.8125 43.3125V29.25H57.4375L57.4389 43.3125H51.8125ZM77.125 40.5C77.125 42.0511 75.8636 43.3125 74.3125 43.3125H68.132C65.3406 43.3125 62.6336 42.5517 60.25 41.1216V29.8322L61.51 28.5722C63.3564 26.7258 64.6684 24.4097 65.3012 21.877C65.4573 21.2513 66.0184 20.8125 66.6653 20.8125C67.457 20.8125 68.2052 21.1584 68.717 21.7645C69.2289 22.3692 69.4483 23.1638 69.3175 23.9456L68.4344 29.25H74.3125C75.8636 29.25 77.125 30.5114 77.125 32.0625V40.5Z" fill="black"/>
</svg>
