<svg width="90" height="90" viewBox="0 0 90 90" fill="none" xmlns="http://www.w3.org/2000/svg">
<path d="M25.5 56.3592V13.5C25.5 13.5 20.5 12 15.5 12.5C10.5 13.0001 5.5 17.5 5.5 17.5V56.3592H25.5Z" fill="#D63864"/>
<path d="M68 19H27.5L27 74.5H67.5L63.5 68L65 59.5L68.5 55L59.5 46L60 42L64 39.5L68 41V19Z" fill="#796FEF"/>
<path d="M35 27H44V35H35V27Z" fill="white"/>
<path d="M53 27H61V35H53V27Z" fill="white"/>
<path d="M36 44H44V52H36V44Z" fill="white"/>
<path d="M33 58H63V69H33V58Z" fill="white"/>
<path d="M55 47H60V51H55V47Z" fill="white"/>
<path d="M10 28H15V31H10V28Z" fill="white"/>
<path d="M21 27H26V31H21V27Z" fill="white"/>
<path d="M11 38H16V43H11V38Z" fill="white"/>
<path d="M15.4688 25.3125H9.84375C9.47079 25.3125 9.11311 25.4607 8.84939 25.7244C8.58566 25.9881 8.4375 26.3458 8.4375 26.7188V32.3438C8.4375 32.7167 8.58566 33.0744 8.84939 33.3381C9.11311 33.6018 9.47079 33.75 9.84375 33.75H15.4688C15.8417 33.75 16.1994 33.6018 16.4631 33.3381C16.7268 33.0744 16.875 32.7167 16.875 32.3438V26.7188C16.875 26.3458 16.7268 25.9881 16.4631 25.7244C16.1994 25.4607 15.8417 25.3125 15.4688 25.3125ZM14.0625 30.9375H11.25V28.125H14.0625V30.9375Z" fill="black"/>
<path d="M15.4688 36.5625H9.84375C9.47079 36.5625 9.11311 36.7107 8.84939 36.9744C8.58566 37.2381 8.4375 37.5958 8.4375 37.9688V43.5938C8.4375 43.9667 8.58566 44.3244 8.84939 44.5881C9.11311 44.8518 9.47079 45 9.84375 45H15.4688C15.8417 45 16.1994 44.8518 16.4631 44.5881C16.7268 44.3244 16.875 43.9667 16.875 43.5938V37.9688C16.875 37.5958 16.7268 37.2381 16.4631 36.9744C16.1994 36.7107 15.8417 36.5625 15.4688 36.5625ZM14.0625 42.1875H11.25V39.375H14.0625V42.1875Z" fill="black"/>
<path d="M57.6562 14.0625C58.4329 14.0625 59.0625 13.4329 59.0625 12.6562C59.0625 11.8796 58.4329 11.25 57.6562 11.25C56.8796 11.25 56.25 11.8796 56.25 12.6562C56.25 13.4329 56.8796 14.0625 57.6562 14.0625Z" fill="black"/>
<path d="M63.2812 14.0625C64.0579 14.0625 64.6875 13.4329 64.6875 12.6562C64.6875 11.8796 64.0579 11.25 63.2812 11.25C62.5046 11.25 61.875 11.8796 61.875 12.6562C61.875 13.4329 62.5046 14.0625 63.2812 14.0625Z" fill="black"/>
<path d="M42.1875 11.25H53.4375V14.0625H42.1875V11.25Z" fill="black"/>
<path d="M42.1875 78.75H53.4375V81.5625H42.1875V78.75Z" fill="black"/>
<path d="M35.1562 36.5625H43.5938C43.9667 36.5625 44.3244 36.4143 44.5881 36.1506C44.8518 35.8869 45 35.5292 45 35.1562V26.7188C45 26.3458 44.8518 25.9881 44.5881 25.7244C44.3244 25.4607 43.9667 25.3125 43.5938 25.3125H35.1562C34.7833 25.3125 34.4256 25.4607 34.1619 25.7244C33.8982 25.9881 33.75 26.3458 33.75 26.7188V35.1562C33.75 35.5292 33.8982 35.8869 34.1619 36.1506C34.4256 36.4143 34.7833 36.5625 35.1562 36.5625ZM36.5625 28.125H42.1875V33.75H36.5625V28.125Z" fill="black"/>
<path d="M52.0312 36.5625H60.4688C60.8417 36.5625 61.1994 36.4143 61.4631 36.1506C61.7268 35.8869 61.875 35.5292 61.875 35.1562V26.7188C61.875 26.3458 61.7268 25.9881 61.4631 25.7244C61.1994 25.4607 60.8417 25.3125 60.4688 25.3125H52.0312C51.6583 25.3125 51.3006 25.4607 51.0369 25.7244C50.7732 25.9881 50.625 26.3458 50.625 26.7188V35.1562C50.625 35.5292 50.7732 35.8869 51.0369 36.1506C51.3006 36.4143 51.6583 36.5625 52.0312 36.5625ZM53.4375 28.125H59.0625V33.75H53.4375V28.125Z" fill="black"/>
<path d="M35.1562 53.4375H43.5938C43.9667 53.4375 44.3244 53.2893 44.5881 53.0256C44.8518 52.7619 45 52.4042 45 52.0312V43.5938C45 43.2208 44.8518 42.8631 44.5881 42.5994C44.3244 42.3357 43.9667 42.1875 43.5938 42.1875H35.1562C34.7833 42.1875 34.4256 42.3357 34.1619 42.5994C33.8982 42.8631 33.75 43.2208 33.75 43.5938V52.0312C33.75 52.4042 33.8982 52.7619 34.1619 53.0256C34.4256 53.2893 34.7833 53.4375 35.1562 53.4375ZM36.5625 45H42.1875V50.625H36.5625V45Z" fill="black"/>
<path d="M50.625 42.1875H53.4375V39.375H49.2188C48.8458 39.375 48.4881 39.5232 48.2244 39.7869C47.9607 40.0506 47.8125 40.4083 47.8125 40.7812V47.8125H50.625V42.1875Z" fill="black"/>
<path d="M47.8125 50.625H50.625V53.4375H47.8125V50.625Z" fill="black"/>
<path d="M56.25 61.875H59.0625V64.6875H56.25V61.875Z" fill="black"/>
<path d="M36.5625 61.875H42.1875V64.6875H36.5625V61.875Z" fill="black"/>
<path d="M45 61.875H53.4375V64.6875H45V61.875Z" fill="black"/>
<path d="M85.7812 77.3438H81.5625V40.5399C81.5624 37.6202 80.4025 34.8202 78.338 32.7557C76.2735 30.6912 73.4734 29.5313 70.5538 29.5312H70.3125V9.84375C70.3112 8.72526 69.8663 7.65295 69.0754 6.86206C68.2846 6.07116 67.2122 5.62628 66.0938 5.625H29.5312C28.4128 5.62628 27.3404 6.07116 26.5496 6.86206C25.7587 7.65295 25.3138 8.72526 25.3125 9.84375V10.8375C23.4978 10.2045 21.6055 9.82122 19.6875 9.69827V4.21875C19.6875 3.84579 19.5393 3.4881 19.2756 3.22438C19.0119 2.96066 18.6542 2.8125 18.2812 2.8125C17.9083 2.8125 17.5506 2.96066 17.2869 3.22438C17.0232 3.4881 16.875 3.84579 16.875 4.21875V9.70144C11.7271 10.0421 6.87733 12.2374 3.2244 15.8806C2.96067 16.1443 2.8125 16.502 2.8125 16.875V57.6562C2.8125 58.0292 2.96066 58.3869 3.22439 58.6506C3.48811 58.9143 3.84579 59.0625 4.21875 59.0625H25.3125V82.9688C25.3138 84.0872 25.7587 85.1596 26.5496 85.9504C27.3404 86.7413 28.4128 87.1862 29.5312 87.1875H66.0938C67.2122 87.1862 68.2846 86.7413 69.0754 85.9504C69.8663 85.1596 70.3112 84.0872 70.3125 82.9688V80.1562H84.375V87.1875H87.1875V78.75C87.1875 78.377 87.0393 78.0194 86.7756 77.7556C86.5119 77.4919 86.1542 77.3438 85.7812 77.3438ZM29.5312 8.4375H66.0938C66.4666 8.43793 66.824 8.58622 67.0876 8.84985C67.3513 9.11348 67.4996 9.47092 67.5 9.84375V17.1169C67.0485 16.9566 66.5729 16.8748 66.0938 16.875H29.5312C29.0521 16.8748 28.5765 16.9566 28.125 17.1169V9.84375C28.1254 9.47092 28.2737 9.11348 28.5374 8.84985C28.801 8.58622 29.1584 8.43793 29.5312 8.4375ZM25.3125 30.9375H22.5V28.125H25.3125V30.9375ZM5.625 56.25V17.4701C8.70199 14.5873 12.6708 12.841 16.875 12.52V18.2812C16.875 18.6542 17.0232 19.0119 17.2869 19.2756C17.5506 19.5393 17.9083 19.6875 18.2812 19.6875C18.6542 19.6875 19.0119 19.5393 19.2756 19.2756C19.5393 19.0119 19.6875 18.6542 19.6875 18.2812V12.5159C21.6208 12.6589 23.5193 13.1068 25.3125 13.8432V25.3125H21.0938C20.7208 25.3125 20.3631 25.4607 20.0994 25.7244C19.8357 25.9881 19.6875 26.3458 19.6875 26.7188V32.3438C19.6875 32.7167 19.8357 33.0744 20.0994 33.3381C20.3631 33.6018 20.7208 33.75 21.0938 33.75H25.3125V36.5625H21.0938C20.7208 36.5625 20.3631 36.7107 20.0994 36.9744C19.8357 37.2381 19.6875 37.5958 19.6875 37.9688V43.5938H22.5V39.375H25.3125V56.25H5.625ZM28.125 21.0938C28.1254 20.7209 28.2737 20.3635 28.5374 20.0999C28.801 19.8362 29.1584 19.6879 29.5312 19.6875H66.0938C66.4666 19.6879 66.824 19.8362 67.0876 20.0999C67.3513 20.3635 67.4996 20.7209 67.5 21.0938V38.8779C66.3793 38.0428 64.9978 37.6342 63.6031 37.7253C62.2085 37.8164 60.8919 38.4012 59.8893 39.375H56.25V42.1875H58.2757C58.05 43.1114 58.05 44.0761 58.2757 45H54.8438C54.4708 45 54.1131 45.1482 53.8494 45.4119C53.5857 45.6756 53.4375 46.0333 53.4375 46.4062V52.0312C53.4375 52.4042 53.5857 52.7619 53.8494 53.0256C54.1131 53.2893 54.4708 53.4375 54.8438 53.4375H60.4688C60.8417 53.4375 61.1994 53.2893 61.4631 53.0256C61.7268 52.7619 61.875 52.4042 61.875 52.0312V49.8013L66.9176 54.8438L66.0231 55.7381C65.5231 56.2393 65.0656 56.7812 64.6551 57.358C64.587 57.0442 64.4136 56.7632 64.1636 56.5616C63.9137 56.3601 63.6023 56.2501 63.2812 56.25H32.3438C31.9708 56.25 31.6131 56.3982 31.3494 56.6619C31.0857 56.9256 30.9375 57.2833 30.9375 57.6562V68.9062C30.9375 69.2792 31.0857 69.6369 31.3494 69.9006C31.6131 70.1643 31.9708 70.3125 32.3438 70.3125H63.2812C63.3925 70.3121 63.5032 70.2985 63.6112 70.272C64.121 71.3066 64.7701 72.2665 65.5404 73.125H29.5312C29.1584 73.1246 28.801 72.9763 28.5374 72.7126C28.2737 72.449 28.1254 72.0916 28.125 71.7188V21.0938ZM59.0625 47.8125V50.625H56.25V47.8125H59.0625ZM61.875 59.0625V67.5H33.75V59.0625H61.875ZM67.5 82.9688C67.4996 83.3416 67.3513 83.699 67.0876 83.9626C66.824 84.2263 66.4666 84.3746 66.0938 84.375H29.5312C29.1584 84.3746 28.801 84.2263 28.5374 83.9626C28.2737 83.699 28.1254 83.3416 28.125 82.9688V75.6956C28.5765 75.8559 29.0521 75.9377 29.5312 75.9375H66.0938C66.5727 75.938 67.0482 75.8571 67.5 75.6981V82.9688ZM70.3125 77.3438V74.5312C70.3125 74.1583 70.1643 73.8006 69.9006 73.5368L68.0118 71.648C66.1658 69.802 65.1287 67.2982 65.1287 64.6875C65.1287 62.0768 66.1658 59.573 68.0118 57.727L69.9006 55.8382C70.0312 55.7076 70.1348 55.5526 70.2055 55.3819C70.2761 55.2113 70.3125 55.0284 70.3125 54.8438C70.3125 54.6591 70.2761 54.4762 70.2055 54.3056C70.1348 54.1349 70.0312 53.9799 69.9006 53.8493L61.8147 45.7636C61.2392 45.1881 60.9159 44.4076 60.9159 43.5938C60.9159 42.78 61.2392 41.9996 61.8147 41.4241C62.3901 40.8487 63.1706 40.5254 63.9844 40.5254C64.7982 40.5254 65.5786 40.8487 66.1541 41.4241L70.7244 45.9944C70.9881 46.2582 71.3458 46.4063 71.7188 46.4063C72.0918 46.4063 72.4495 46.2581 72.7132 45.9944C72.9769 45.7306 73.125 45.3729 73.125 44.9999C73.125 44.627 72.9768 44.2693 72.7131 44.0056L70.3125 41.6051V32.3438H70.5538C71.6301 32.3437 72.6959 32.5557 73.6903 32.9676C74.6848 33.3795 75.5883 33.9832 76.3494 34.7443C77.1105 35.5054 77.7142 36.4089 78.1261 37.4033C78.538 38.3977 78.75 39.4636 78.75 40.5399V77.3438H70.3125Z" fill="black"/>
</svg>
