<svg width="90" height="90" viewBox="0 0 90 90" fill="none" xmlns="http://www.w3.org/2000/svg">
<rect x="12" y="5" width="66" height="9" fill="#61B5B2"/>
<path d="M21.5 28.5L19.5 33.5V63L23.5 70H27L29.5 63.5L31.5 60.5L35.5 62L33 72L44 71.5L48 68V51L47 30L44 27H26.5L21.5 28.5Z" fill="#796FEF"/>
<path d="M42.1875 25.3125H25.3125C23.4477 25.3125 21.6593 26.0533 20.3407 27.3719C19.022 28.6905 18.2813 30.4789 18.2813 32.3438V49.3313C15.9404 49.6691 13.7995 50.8385 12.2501 52.6254C10.7007 54.4124 9.84653 56.6974 9.84375 59.0625V74.2078C9.84292 75.4737 9.99879 76.7349 10.3078 77.9625L11.25 81.7312V87.1875H14.0625V81.5625C14.0623 81.4487 14.0482 81.3353 14.0203 81.225L13.0359 77.2734C12.7835 76.2711 12.656 75.2414 12.6563 74.2078V59.0625C12.6583 57.4422 13.2189 55.8722 14.2435 54.617C15.2681 53.3618 16.6942 52.4983 18.2813 52.1719V63.2812C18.2813 63.5336 18.3493 63.7814 18.4781 63.9984L21.8953 69.6938C22.2615 70.3122 22.7817 70.8251 23.4053 71.1825C24.0289 71.5399 24.7344 71.7295 25.4531 71.7328C26.3847 71.7408 27.2927 71.4403 28.0355 70.8781C28.7783 70.3159 29.3141 69.5237 29.5594 68.625L31.1766 62.5781C31.2741 62.2167 31.5109 61.9087 31.8351 61.7216C32.1594 61.5344 32.5445 61.4834 32.9063 61.5797C33.0833 61.625 33.2493 61.7057 33.3943 61.8169C33.5393 61.928 33.6603 62.0674 33.75 62.2266C33.8445 62.3859 33.9057 62.5628 33.9299 62.7465C33.9541 62.9302 33.9407 63.1169 33.8906 63.2953L31.275 73.0969C31.0506 73.9267 30.9371 74.7826 30.9375 75.6422V78.2859L27 83.5313C26.816 83.7739 26.7171 84.0705 26.7188 84.375V87.1875H29.5313V84.8391L33.4688 79.5937C33.6528 79.3511 33.7517 79.0545 33.75 78.75V75.6422C33.7515 75.0297 33.8319 74.42 33.9891 73.8281L34.1719 73.125H42.1875C44.0523 73.125 45.8407 72.3842 47.1594 71.0656C48.478 69.747 49.2188 67.9586 49.2188 66.0938V32.3438C49.2188 30.4789 48.478 28.6905 47.1594 27.3719C45.8407 26.0533 44.0523 25.3125 42.1875 25.3125ZM46.4063 66.0938C46.4029 67.2116 45.9574 68.2827 45.1669 69.0732C44.3765 69.8636 43.3054 70.3092 42.1875 70.3125H34.9313L35.6766 67.5H37.9688V64.6875H36.4359L36.6188 64.0266C36.9046 62.9439 36.7531 61.7922 36.1969 60.8203C35.7767 60.1001 35.153 59.5201 34.4041 59.1534C33.6552 58.7867 32.8146 58.6496 31.988 58.7593C31.1614 58.869 30.3857 59.2206 29.7584 59.77C29.1311 60.3194 28.6803 61.042 28.4625 61.8469L26.8453 67.8937C26.7744 68.1569 26.6277 68.3933 26.4233 68.5736C26.2189 68.7539 25.966 68.87 25.6961 68.9075C25.4262 68.945 25.1512 68.9022 24.9054 68.7844C24.6596 68.6667 24.454 68.4792 24.3141 68.2453L21.0938 62.8875V32.3438C21.0971 31.2259 21.5426 30.1548 22.3331 29.3643C23.1235 28.5739 24.1947 28.1283 25.3125 28.125H42.1875C43.3054 28.1283 44.3765 28.5739 45.1669 29.3643C45.9574 30.1548 46.4029 31.2259 46.4063 32.3438V66.0938Z" fill="black"/>
<path d="M29.5312 30.9375H37.9688V33.75H29.5312V30.9375Z" fill="black"/>
<path d="M23.9062 30.9375H26.7188V33.75H23.9062V30.9375Z" fill="black"/>
<path d="M28.125 37.9688H25.3125C24.5358 37.9688 23.9062 38.5983 23.9062 39.375V42.1875C23.9062 42.9642 24.5358 43.5938 25.3125 43.5938H28.125C28.9017 43.5938 29.5312 42.9642 29.5312 42.1875V39.375C29.5312 38.5983 28.9017 37.9688 28.125 37.9688Z" fill="black"/>
<path d="M42.1875 37.9688H39.375C38.5983 37.9688 37.9688 38.5983 37.9688 39.375V42.1875C37.9688 42.9642 38.5983 43.5938 39.375 43.5938H42.1875C42.9642 43.5938 43.5938 42.9642 43.5938 42.1875V39.375C43.5938 38.5983 42.9642 37.9688 42.1875 37.9688Z" fill="black"/>
<path d="M28.125 52.0312H25.3125C24.5358 52.0312 23.9062 52.6608 23.9062 53.4375V56.25C23.9062 57.0267 24.5358 57.6562 25.3125 57.6562H28.125C28.9017 57.6562 29.5312 57.0267 29.5312 56.25V53.4375C29.5312 52.6608 28.9017 52.0312 28.125 52.0312Z" fill="black"/>
<path d="M40.7812 54.8438H37.9688V57.6562H42.1875C42.5605 57.6562 42.9181 57.5081 43.1819 57.2444C43.4456 56.9806 43.5938 56.623 43.5938 56.25V52.0312H40.7812V54.8438Z" fill="black"/>
<path d="M32.3438 37.9688H35.1562V43.5938H32.3438V37.9688Z" fill="black"/>
<path d="M37.9688 46.4062H43.5938V49.2188H37.9688V46.4062Z" fill="black"/>
<path d="M29.5312 46.4062H35.1562V49.2188H29.5312V46.4062Z" fill="black"/>
<path d="M32.3438 52.0312H35.1562V57.6562H32.3438V52.0312Z" fill="black"/>
<path d="M23.9062 46.4062H26.7188V49.2188H23.9062V46.4062Z" fill="black"/>
<path d="M75.9375 2.8125H14.0625C12.9446 2.81584 11.8735 3.26138 11.0831 4.05183C10.2926 4.84228 9.84709 5.91339 9.84375 7.03125V49.2188H12.6562V16.875H77.3438V68.9062C77.3438 69.2792 77.1956 69.6369 76.9319 69.9006C76.6681 70.1643 76.3105 70.3125 75.9375 70.3125H50.625V73.125H75.9375C77.0554 73.1217 78.1265 72.6761 78.9169 71.8857C79.7074 71.0952 80.1529 70.0241 80.1562 68.9062V7.03125C80.1529 5.91339 79.7074 4.84228 78.9169 4.05183C78.1265 3.26138 77.0554 2.81584 75.9375 2.8125ZM77.3438 14.0625H12.6562V7.03125C12.6562 6.65829 12.8044 6.3006 13.0681 6.03688C13.3319 5.77316 13.6895 5.625 14.0625 5.625H75.9375C76.3105 5.625 76.6681 5.77316 76.9319 6.03688C77.1956 6.3006 77.3438 6.65829 77.3438 7.03125V14.0625Z" fill="black"/>
<path d="M15.4688 8.4375H18.2812V11.25H15.4688V8.4375Z" fill="black"/>
<path d="M21.0938 8.4375H23.9062V11.25H21.0938V8.4375Z" fill="black"/>
<path d="M26.7188 8.4375H29.5312V11.25H26.7188V8.4375Z" fill="black"/>
<path d="M56.25 23.9062H53.4375C52.6608 23.9062 52.0312 24.5358 52.0312 25.3125V28.125C52.0312 28.9017 52.6608 29.5312 53.4375 29.5312H56.25C57.0267 29.5312 57.6562 28.9017 57.6562 28.125V25.3125C57.6562 24.5358 57.0267 23.9062 56.25 23.9062Z" fill="black"/>
<path d="M70.3126 23.9062H67.5001C66.7234 23.9062 66.0938 24.5358 66.0938 25.3125V28.125C66.0938 28.9017 66.7234 29.5312 67.5001 29.5312H70.3126C71.0892 29.5312 71.7188 28.9017 71.7188 28.125V25.3125C71.7188 24.5358 71.0892 23.9062 70.3126 23.9062Z" fill="black"/>
<path d="M56.25 37.9688H53.4375C52.6608 37.9688 52.0312 38.5983 52.0312 39.375V42.1875C52.0312 42.9642 52.6608 43.5938 53.4375 43.5938H56.25C57.0267 43.5938 57.6562 42.9642 57.6562 42.1875V39.375C57.6562 38.5983 57.0267 37.9688 56.25 37.9688Z" fill="black"/>
<path d="M66.0938 43.5938H70.3126C70.6855 43.5938 71.0432 43.4456 71.3069 43.1819C71.5707 42.9181 71.7188 42.5605 71.7188 42.1875V37.9688H68.9063V40.7812H66.0938V43.5938Z" fill="black"/>
<path d="M60.4688 23.9062H63.2812V29.5312H60.4688V23.9062Z" fill="black"/>
<path d="M66.0938 32.3438H71.7188V35.1562H66.0938V32.3438Z" fill="black"/>
<path d="M57.6562 32.3438H63.2812V35.1562H57.6562V32.3438Z" fill="black"/>
<path d="M60.4688 37.9688H63.2812V43.5938H60.4688V37.9688Z" fill="black"/>
<path d="M52.0312 32.3438H54.8438V35.1562H52.0312V32.3438Z" fill="black"/>
<path d="M57.6562 53.4375H71.7188V56.25H57.6562V53.4375Z" fill="black"/>
<path d="M57.6562 59.0625H71.7188V61.875H57.6562V59.0625Z" fill="black"/>
</svg>
