<svg width="90" height="90" viewBox="0 0 90 90" fill="none" xmlns="http://www.w3.org/2000/svg">
<path d="M39.8687 46.9459H3.64859C3.32603 46.9459 3.01668 46.8177 2.78859 46.5896C2.56051 46.3616 2.43237 46.0522 2.43237 45.7297V37.8547C2.43559 35.0116 3.56641 32.286 5.57673 30.2756C7.58706 28.2653 10.3127 27.1345 13.1558 27.1313H30.3603C33.2036 27.1342 35.9296 28.2649 37.9402 30.2752C39.9507 32.2856 41.0817 35.0114 41.0849 37.8547V45.7297C41.0849 46.0522 40.9568 46.3616 40.7287 46.5896C40.5006 46.8177 40.1913 46.9459 39.8687 46.9459Z" fill="#B150D2"/>
<path d="M39.8687 46.9459H3.64859C3.32603 46.9459 3.01668 46.8177 2.78859 46.5896C2.56051 46.3616 2.43237 46.0522 2.43237 45.7297V37.8547C2.43559 35.0116 3.56641 32.286 5.57673 30.2756C7.58706 28.2653 10.3127 27.1345 13.1558 27.1313H30.3603C33.2036 27.1342 35.9296 28.2649 37.9402 30.2752C39.9507 32.2856 41.0817 35.0114 41.0849 37.8547V45.7297C41.0849 46.0522 40.9568 46.3616 40.7287 46.5896C40.5006 46.8177 40.1913 46.9459 39.8687 46.9459ZM4.86481 44.5134H38.6525V37.8547C38.6499 35.6563 37.7754 33.5488 36.2209 31.9945C34.6663 30.4402 32.5587 29.566 30.3603 29.5637H13.1558C10.9576 29.5663 8.85031 30.4406 7.29601 31.9949C5.74172 33.5492 4.86738 35.6566 4.86481 37.8547V44.5134Z" fill="black"/>
<path d="M21.758 24.0203C19.6232 24.0203 17.5363 23.3872 15.7613 22.2012C13.9862 21.0151 12.6027 19.3293 11.7858 17.357C10.9688 15.3847 10.755 13.2144 11.1715 11.1206C11.588 9.02675 12.616 7.10346 14.1256 5.5939C15.6351 4.08435 17.5584 3.05633 19.6522 2.63984C21.7461 2.22336 23.9164 2.43711 25.8887 3.25408C27.861 4.07104 29.5468 5.45453 30.7329 7.22958C31.9189 9.00463 32.552 11.0915 32.552 13.2264C32.5487 16.0881 31.4105 18.8317 29.3869 20.8553C27.3634 22.8788 24.6198 24.0171 21.758 24.0203Z" fill="#B150D2"/>
<path d="M21.7582 24.0203C19.6233 24.0203 17.5364 23.3872 15.7614 22.2012C13.9863 21.0151 12.6028 19.3293 11.7859 17.357C10.9689 15.3847 10.7552 13.2144 11.1716 11.1206C11.5881 9.02675 12.6161 7.10346 14.1257 5.5939C15.6353 4.08435 17.5586 3.05633 19.6524 2.63984C21.7462 2.22336 23.9165 2.43711 25.8888 3.25408C27.8611 4.07104 29.5469 5.45453 30.733 7.22958C31.919 9.00463 32.5521 11.0915 32.5521 13.2264C32.5489 16.0881 31.4106 18.8317 29.3871 20.8553C27.3635 22.8788 24.6199 24.0171 21.7582 24.0203ZM21.7582 4.86487C20.1044 4.86487 18.4878 5.35526 17.1128 6.27404C15.7377 7.19281 14.666 8.49869 14.0332 10.0266C13.4003 11.5544 13.2347 13.2356 13.5573 14.8576C13.88 16.4796 14.6763 17.9694 15.8457 19.1388C17.0151 20.3082 18.5049 21.1046 20.1269 21.4272C21.7489 21.7498 23.4301 21.5842 24.958 20.9514C26.4858 20.3185 27.7917 19.2468 28.7105 17.8718C29.6293 16.4967 30.1196 14.8801 30.1196 13.2264C30.1171 11.0095 29.2353 8.88426 27.6678 7.31674C26.1003 5.74921 23.975 4.86745 21.7582 4.86487Z" fill="black"/>
<path d="M86.4364 87.5134H50.2162C49.8937 87.5134 49.5843 87.3853 49.3562 87.1572C49.1281 86.9291 49 86.6198 49 86.2972V78.4222C49.0032 75.5792 50.134 72.8535 52.1444 70.8432C54.1547 68.8329 56.8804 67.7021 59.7234 67.6989H76.928C79.7712 67.7017 82.4972 68.8324 84.5078 70.8428C86.5184 72.8531 87.6493 75.579 87.6526 78.4222V86.2972C87.6526 86.6198 87.5244 86.9291 87.2963 87.1572C87.0683 87.3853 86.7589 87.5134 86.4364 87.5134Z" fill="#38BAB4"/>
<path d="M86.4364 87.5134H50.2162C49.8937 87.5134 49.5843 87.3853 49.3562 87.1572C49.1281 86.9291 49 86.6198 49 86.2972V78.4222C49.0032 75.5792 50.134 72.8535 52.1444 70.8432C54.1547 68.8329 56.8804 67.7021 59.7234 67.6989H76.928C79.7712 67.7017 82.4972 68.8324 84.5078 70.8428C86.5184 72.8531 87.6493 75.579 87.6526 78.4222V86.2972C87.6526 86.6198 87.5244 86.9291 87.2963 87.1572C87.0683 87.3853 86.7589 87.5134 86.4364 87.5134ZM51.4324 85.081H85.2201V78.4222C85.2176 76.2239 84.3431 74.1164 82.7885 72.5621C81.2339 71.0077 79.1263 70.1335 76.928 70.1313H59.7234C57.5253 70.1339 55.4179 71.0082 53.8636 72.5625C52.3093 74.1168 51.435 76.2241 51.4324 78.4222V85.081Z" fill="black"/>
<path d="M68.3257 64.5878C66.1908 64.5878 64.1039 63.9548 62.3289 62.7687C60.5538 61.5827 59.1703 59.8969 58.3534 57.9246C57.5364 55.9522 57.3227 53.7819 57.7391 51.6881C58.1556 49.5943 59.1837 47.671 60.6932 46.1615C62.2028 44.6519 64.1261 43.6239 66.2199 43.2074C68.3137 42.7909 70.484 43.0047 72.4563 43.8216C74.4286 44.6386 76.1144 46.0221 77.3005 47.7971C78.4865 49.5722 79.1196 51.6591 79.1196 53.7939C79.1164 56.6557 77.9781 59.3993 75.9546 61.4228C73.931 63.4464 71.1874 64.5846 68.3257 64.5878Z" fill="#38BAB4"/>
<path d="M68.3257 64.5878C66.1908 64.5878 64.1039 63.9548 62.3289 62.7687C60.5538 61.5827 59.1703 59.8969 58.3534 57.9246C57.5364 55.9522 57.3227 53.7819 57.7391 51.6881C58.1556 49.5943 59.1837 47.671 60.6932 46.1615C62.2028 44.6519 64.1261 43.6239 66.2199 43.2074C68.3137 42.7909 70.484 43.0047 72.4563 43.8216C74.4286 44.6386 76.1144 46.0221 77.3005 47.7971C78.4865 49.5722 79.1196 51.6591 79.1196 53.7939C79.1164 56.6557 77.9781 59.3993 75.9546 61.4228C73.931 63.4464 71.1874 64.5846 68.3257 64.5878ZM68.3257 45.4324C66.6719 45.4324 65.0553 45.9228 63.6803 46.8416C62.3052 47.7604 61.2335 49.0663 60.6007 50.5941C59.9678 52.122 59.8022 53.8032 60.1248 55.4252C60.4475 57.0471 61.2438 58.537 62.4132 59.7064C63.5826 60.8758 65.0724 61.6721 66.6944 61.9947C68.3164 62.3174 69.9976 62.1518 71.5255 61.5189C73.0533 60.8861 74.3592 59.8144 75.278 58.4393C76.1968 57.0643 76.6872 55.4477 76.6872 53.7939C76.6846 51.5771 75.8028 49.4518 74.2353 47.8843C72.6678 46.3168 70.5425 45.435 68.3257 45.4324Z" fill="black"/>
<path d="M31.6216 46.9459H11.9019C11.5793 46.9459 11.27 46.8178 11.0419 46.5897C10.8138 46.3616 10.6857 46.0522 10.6857 45.7297V40.281C10.6857 39.9585 10.8138 39.6491 11.0419 39.421C11.27 39.193 11.5793 39.0648 11.9019 39.0648C12.2244 39.0648 12.5338 39.193 12.7619 39.421C12.99 39.6491 13.1181 39.9585 13.1181 40.281V44.5135H30.4054V40.281C30.4054 39.9585 30.5335 39.6491 30.7616 39.421C30.9897 39.193 31.2991 39.0648 31.6216 39.0648C31.9442 39.0648 32.2535 39.193 32.4816 39.421C32.7097 39.6491 32.8378 39.9585 32.8378 40.281V45.7297C32.8378 46.0522 32.7097 46.3616 32.4816 46.5897C32.2535 46.8178 31.9442 46.9459 31.6216 46.9459Z" fill="black"/>
<path d="M78.103 87.5749H58.3893C58.0668 87.5749 57.7574 87.4468 57.5293 87.2187C57.3012 86.9906 57.1731 86.6813 57.1731 86.3587V80.9076C57.1731 80.5851 57.3012 80.2757 57.5293 80.0476C57.7574 79.8195 58.0668 79.6914 58.3893 79.6914C58.7119 79.6914 59.0212 79.8195 59.2493 80.0476C59.4774 80.2757 59.6055 80.5851 59.6055 80.9076V85.1425H76.8867V80.9076C76.8867 80.5851 77.0149 80.2757 77.243 80.0476C77.471 79.8195 77.7804 79.6914 78.103 79.6914C78.4255 79.6914 78.7349 79.8195 78.9629 80.0476C79.191 80.2757 79.3192 80.5851 79.3192 80.9076V86.3587C79.3192 86.6813 79.191 86.9906 78.9629 87.2187C78.7349 87.4468 78.4255 87.5749 78.103 87.5749Z" fill="black"/>
<path d="M73.0763 33.3487C72.7537 33.3487 72.4444 33.2205 72.2163 32.9924C71.9882 32.7644 71.8601 32.455 71.8601 32.1325V24.8352C71.8569 22.0944 70.7667 19.4668 68.8286 17.5288C66.8906 15.5907 64.263 14.5005 61.5222 14.4973H51.7925C51.4699 14.4973 51.1606 14.3692 50.9325 14.1411C50.7044 13.913 50.5763 13.6037 50.5763 13.2811C50.5763 12.9585 50.7044 12.6492 50.9325 12.4211C51.1606 12.193 51.4699 12.0649 51.7925 12.0649H61.5222C64.9079 12.0687 68.1539 13.4154 70.5479 15.8095C72.942 18.2035 74.2886 21.4495 74.2925 24.8352V32.1325C74.2925 32.455 74.1644 32.7644 73.9363 32.9924C73.7082 33.2205 73.3989 33.3487 73.0763 33.3487Z" fill="black"/>
<path d="M56.5541 19.26C56.3943 19.2604 56.236 19.2291 56.0884 19.168C55.9408 19.1068 55.8068 19.0169 55.6942 18.9036L50.9303 14.1409C50.7023 13.9128 50.5742 13.6035 50.5742 13.281C50.5742 12.9586 50.7023 12.6493 50.9303 12.4212L55.7027 7.66213C55.8115 7.53402 55.9457 7.42985 56.0968 7.3562C56.2479 7.28255 56.4126 7.24101 56.5805 7.23421C56.7485 7.22741 56.916 7.25549 57.0725 7.31668C57.2291 7.37788 57.3712 7.47085 57.49 7.58974C57.6088 7.70863 57.7017 7.85086 57.7628 8.00744C57.8239 8.16403 57.8518 8.33158 57.8449 8.49951C57.838 8.66745 57.7963 8.83212 57.7226 8.98315C57.6488 9.13418 57.5446 9.26828 57.4164 9.37699L53.5135 13.281L57.4164 17.1839C57.5864 17.354 57.7022 17.5707 57.7491 17.8065C57.796 18.0424 57.7719 18.2869 57.6799 18.5091C57.5879 18.7313 57.432 18.9213 57.2321 19.0549C57.0321 19.1886 56.797 19.2599 56.5565 19.26H56.5541Z" fill="black"/>
<path d="M38.2111 77.9425H28.4813C25.0956 77.9386 21.8497 76.5919 19.4557 74.1979C17.0616 71.8038 15.7149 68.5579 15.7111 65.1722V57.8749C15.7111 57.5523 15.8392 57.243 16.0673 57.0149C16.2954 56.7868 16.6047 56.6587 16.9273 56.6587C17.2498 56.6587 17.5592 56.7868 17.7873 57.0149C18.0154 57.243 18.1435 57.5523 18.1435 57.8749V65.1722C18.1467 67.913 19.2369 70.5406 21.1749 72.4786C23.113 74.4166 25.7406 75.5068 28.4813 75.51H38.2111C38.5336 75.51 38.843 75.6382 39.0711 75.8663C39.2991 76.0944 39.4273 76.4037 39.4273 76.7263C39.4273 77.0488 39.2991 77.3582 39.0711 77.5863C38.843 77.8143 38.5336 77.9425 38.2111 77.9425Z" fill="black"/>
<path d="M33.446 82.7027C33.2079 82.6993 32.9761 82.6262 32.7792 82.4923C32.5823 82.3585 32.4291 82.1698 32.3384 81.9496C32.2478 81.7295 32.2237 81.4876 32.2693 81.2539C32.3148 81.0203 32.4279 80.8051 32.5946 80.6351L36.4865 76.7262L32.5946 72.8233C32.3731 72.594 32.2505 72.2867 32.2532 71.9679C32.256 71.649 32.3839 71.3439 32.6094 71.1184C32.8349 70.8929 33.14 70.765 33.4588 70.7623C33.7777 70.7595 34.085 70.8821 34.3143 71.1036L39.077 75.8663C39.305 76.0944 39.4331 76.4037 39.4331 76.7262C39.4331 77.0487 39.305 77.358 39.077 77.586L34.3083 82.35C34.195 82.4629 34.0605 82.5522 33.9125 82.6128C33.7645 82.6733 33.6059 82.7039 33.446 82.7027Z" fill="black"/>
</svg>
